<?xml version="1.0" encoding="UTF-8" standalone="no"?>
<!DOCTYPE svg PUBLIC "-//W3C//DTD SVG 1.1//EN"
 "http://www.w3.org/Graphics/SVG/1.1/DTD/svg11.dtd">
<!-- Generated by graphviz version 2.40.1 (20161225.0304)
 -->
<!-- Title: dependencies Pages: 1 -->
<svg width="1691pt" height="287pt"
 viewBox="0.00 0.00 1691.00 287.00" xmlns="http://www.w3.org/2000/svg" xmlns:xlink="http://www.w3.org/1999/xlink">
<g id="graph0" class="graph" transform="scale(1 1) rotate(0) translate(4 283)">
<title>dependencies</title>
<polygon fill="#ffffff" stroke="transparent" points="-4,4 -4,-283 1687,-283 1687,4 -4,4"/>
<text text-anchor="start" x="820.5091" y="-42.4" font-family="sans-serif" font-weight="bold" font-size="14.00" fill="#000000">Legend</text>
<polygon fill="#ffffb3" stroke="transparent" points="607.5,-10 607.5,-30 627.5,-30 627.5,-10 607.5,-10"/>
<text text-anchor="start" x="631.129" y="-15.4" font-family="sans-serif" font-size="14.00" fill="#000000"> &#160;Declarations</text>
<polygon fill="#8dd3c7" stroke="transparent" points="720.5,-10 720.5,-30 740.5,-30 740.5,-10 720.5,-10"/>
<text text-anchor="start" x="744.2251" y="-15.4" font-family="sans-serif" font-size="14.00" fill="#000000"> &#160;Module</text>
<polygon fill="#80b1d3" stroke="transparent" points="806.5,-10 806.5,-30 826.5,-30 826.5,-10 806.5,-10"/>
<text text-anchor="start" x="830.2812" y="-15.4" font-family="sans-serif" font-size="14.00" fill="#000000"> &#160;Bootstrap</text>
<polygon fill="#fdb462" stroke="transparent" points="903.5,-10 903.5,-30 923.5,-30 923.5,-10 903.5,-10"/>
<text text-anchor="start" x="927.1732" y="-15.4" font-family="sans-serif" font-size="14.00" fill="#000000"> &#160;Providers</text>
<polygon fill="#fb8072" stroke="transparent" points="999.5,-10 999.5,-30 1019.5,-30 1019.5,-10 999.5,-10"/>
<text text-anchor="start" x="1023.2258" y="-15.4" font-family="sans-serif" font-size="14.00" fill="#000000"> &#160;Exports</text>
<g id="clust1" class="cluster">
<title>cluster_AppModule</title>
<polygon fill="none" stroke="#000000" stroke-dasharray="1,5" points="747,-146 747,-271 881,-271 881,-146 747,-146"/>
</g>
<g id="clust3" class="cluster">
<title>cluster_AppModule_imports</title>
<polygon fill="none" stroke="#000000" points="755,-154 755,-206 873,-206 873,-154 755,-154"/>
</g>
<g id="clust7" class="cluster">
<title>cluster_WeewxModule</title>
<polygon fill="none" stroke="#000000" stroke-dasharray="1,5" points="8,-70 8,-138 1675,-138 1675,-70 8,-70"/>
</g>
<g id="clust12" class="cluster">
<title>cluster_WeewxModule_providers</title>
<polygon fill="none" stroke="#000000" points="16,-78 16,-130 1667,-130 1667,-78 16,-78"/>
</g>
<!-- WeewxModule -->
<g id="node1" class="node">
<title>WeewxModule</title>
<polygon fill="#8dd3c7" stroke="#000000" points="865.3006,-198 862.3006,-202 841.3006,-202 838.3006,-198 762.6994,-198 762.6994,-162 865.3006,-162 865.3006,-198"/>
<text text-anchor="middle" x="814" y="-175.8" font-family="Times,serif" font-size="14.00" fill="#000000">WeewxModule</text>
</g>
<!-- AppModule -->
<g id="node2" class="node">
<title>AppModule</title>
<polygon fill="#8dd3c7" stroke="#000000" points="855.6571,-263 852.6571,-267 831.6571,-267 828.6571,-263 772.3429,-263 772.3429,-227 855.6571,-227 855.6571,-263"/>
<text text-anchor="middle" x="814" y="-240.8" font-family="Times,serif" font-size="14.00" fill="#000000">AppModule</text>
</g>
<!-- WeewxModule&#45;&gt;AppModule -->
<g id="edge1" class="edge">
<title>WeewxModule&#45;&gt;AppModule</title>
<path fill="none" stroke="#000000" d="M814,-198.1061C814,-198.1061 814,-216.991 814,-216.991"/>
<polygon fill="#000000" stroke="#000000" points="810.5001,-216.9909 814,-226.991 817.5001,-216.991 810.5001,-216.9909"/>
</g>
<!-- AgricultureService -->
<g id="node3" class="node">
<title>AgricultureService</title>
<ellipse fill="#fdb462" stroke="#000000" cx="1574" cy="-104" rx="84.5054" ry="18"/>
<text text-anchor="middle" x="1574" y="-99.8" font-family="Times,serif" font-size="14.00" fill="#000000">AgricultureService</text>
</g>
<!-- AgricultureService&#45;&gt;WeewxModule -->
<g id="edge2" class="edge">
<title>AgricultureService&#45;&gt;WeewxModule</title>
<path fill="none" stroke="#000000" d="M1574,-122.0265C1574,-147.5093 1574,-191 1574,-191 1574,-191 875.3427,-191 875.3427,-191"/>
<polygon fill="#000000" stroke="#000000" points="875.3428,-187.5001 865.3427,-191 875.3427,-194.5001 875.3428,-187.5001"/>
</g>
<!-- ArchiveService -->
<g id="node4" class="node">
<title>ArchiveService</title>
<ellipse fill="#fdb462" stroke="#000000" cx="1400" cy="-104" rx="71.1843" ry="18"/>
<text text-anchor="middle" x="1400" y="-99.8" font-family="Times,serif" font-size="14.00" fill="#000000">ArchiveService</text>
</g>
<!-- ArchiveService&#45;&gt;WeewxModule -->
<g id="edge3" class="edge">
<title>ArchiveService&#45;&gt;WeewxModule</title>
<path fill="none" stroke="#000000" d="M1400,-122.1532C1400,-145.7566 1400,-184 1400,-184 1400,-184 875.234,-184 875.234,-184"/>
<polygon fill="#000000" stroke="#000000" points="875.234,-180.5001 865.234,-184 875.234,-187.5001 875.234,-180.5001"/>
</g>
<!-- HumidityService -->
<g id="node5" class="node">
<title>HumidityService</title>
<ellipse fill="#fdb462" stroke="#000000" cx="1234" cy="-104" rx="77.0236" ry="18"/>
<text text-anchor="middle" x="1234" y="-99.8" font-family="Times,serif" font-size="14.00" fill="#000000">HumidityService</text>
</g>
<!-- HumidityService&#45;&gt;WeewxModule -->
<g id="edge4" class="edge">
<title>HumidityService&#45;&gt;WeewxModule</title>
<path fill="none" stroke="#000000" d="M1234,-122.0449C1234,-143.6623 1234,-177 1234,-177 1234,-177 875.5002,-177 875.5002,-177"/>
<polygon fill="#000000" stroke="#000000" points="875.5003,-173.5001 865.5002,-177 875.5002,-180.5001 875.5003,-173.5001"/>
</g>
<!-- InsideService -->
<g id="node6" class="node">
<title>InsideService</title>
<ellipse fill="#fdb462" stroke="#000000" cx="1075" cy="-104" rx="63.6793" ry="18"/>
<text text-anchor="middle" x="1075" y="-99.8" font-family="Times,serif" font-size="14.00" fill="#000000">InsideService</text>
</g>
<!-- InsideService&#45;&gt;WeewxModule -->
<g id="edge5" class="edge">
<title>InsideService&#45;&gt;WeewxModule</title>
<path fill="none" stroke="#000000" d="M1075,-122.0348C1075,-141.5762 1075,-170 1075,-170 1075,-170 875.2538,-170 875.2538,-170"/>
<polygon fill="#000000" stroke="#000000" points="875.2538,-166.5001 865.2538,-170 875.2538,-173.5001 875.2538,-166.5001"/>
</g>
<!-- PrecipitationService -->
<g id="node7" class="node">
<title>PrecipitationService</title>
<ellipse fill="#fdb462" stroke="#000000" cx="904" cy="-104" rx="89.178" ry="18"/>
<text text-anchor="middle" x="904" y="-99.8" font-family="Times,serif" font-size="14.00" fill="#000000">PrecipitationService</text>
</g>
<!-- PrecipitationService&#45;&gt;WeewxModule -->
<g id="edge6" class="edge">
<title>PrecipitationService&#45;&gt;WeewxModule</title>
<path fill="none" stroke="#000000" d="M839.9056,-116.5499C839.9056,-116.5499 839.9056,-151.7417 839.9056,-151.7417"/>
<polygon fill="#000000" stroke="#000000" points="836.4057,-151.7417 839.9056,-161.7417 843.4057,-151.7418 836.4057,-151.7417"/>
</g>
<!-- PressureService -->
<g id="node8" class="node">
<title>PressureService</title>
<ellipse fill="#fdb462" stroke="#000000" cx="724" cy="-104" rx="72.9063" ry="18"/>
<text text-anchor="middle" x="724" y="-99.8" font-family="Times,serif" font-size="14.00" fill="#000000">PressureService</text>
</g>
<!-- PressureService&#45;&gt;WeewxModule -->
<g id="edge7" class="edge">
<title>PressureService&#45;&gt;WeewxModule</title>
<path fill="none" stroke="#000000" d="M779.7764,-115.875C779.7764,-115.875 779.7764,-151.9891 779.7764,-151.9891"/>
<polygon fill="#000000" stroke="#000000" points="776.2765,-151.989 779.7764,-161.9891 783.2765,-151.9891 776.2765,-151.989"/>
</g>
<!-- SensorService -->
<g id="node9" class="node">
<title>SensorService</title>
<ellipse fill="#fdb462" stroke="#000000" cx="567" cy="-104" rx="66.0492" ry="18"/>
<text text-anchor="middle" x="567" y="-99.8" font-family="Times,serif" font-size="14.00" fill="#000000">SensorService</text>
</g>
<!-- SensorService&#45;&gt;WeewxModule -->
<g id="edge8" class="edge">
<title>SensorService&#45;&gt;WeewxModule</title>
<path fill="none" stroke="#000000" d="M567,-122.0348C567,-141.5762 567,-170 567,-170 567,-170 752.8214,-170 752.8214,-170"/>
<polygon fill="#000000" stroke="#000000" points="752.8215,-173.5001 762.8214,-170 752.8214,-166.5001 752.8215,-173.5001"/>
</g>
<!-- SolarService -->
<g id="node10" class="node">
<title>SolarService</title>
<ellipse fill="#fdb462" stroke="#000000" cx="422" cy="-104" rx="60.2479" ry="18"/>
<text text-anchor="middle" x="422" y="-99.8" font-family="Times,serif" font-size="14.00" fill="#000000">SolarService</text>
</g>
<!-- SolarService&#45;&gt;WeewxModule -->
<g id="edge9" class="edge">
<title>SolarService&#45;&gt;WeewxModule</title>
<path fill="none" stroke="#000000" d="M422,-122.0449C422,-143.6623 422,-177 422,-177 422,-177 752.7528,-177 752.7528,-177"/>
<polygon fill="#000000" stroke="#000000" points="752.7529,-180.5001 762.7528,-177 752.7528,-173.5001 752.7529,-180.5001"/>
</g>
<!-- TemperatureService -->
<g id="node11" class="node">
<title>TemperatureService</title>
<ellipse fill="#fdb462" stroke="#000000" cx="254" cy="-104" rx="89.1414" ry="18"/>
<text text-anchor="middle" x="254" y="-99.8" font-family="Times,serif" font-size="14.00" fill="#000000">TemperatureService</text>
</g>
<!-- TemperatureService&#45;&gt;WeewxModule -->
<g id="edge10" class="edge">
<title>TemperatureService&#45;&gt;WeewxModule</title>
<path fill="none" stroke="#000000" d="M254,-122.1532C254,-145.7566 254,-184 254,-184 254,-184 752.8192,-184 752.8192,-184"/>
<polygon fill="#000000" stroke="#000000" points="752.8192,-187.5001 762.8192,-184 752.8192,-180.5001 752.8192,-187.5001"/>
</g>
<!-- WindService -->
<g id="node12" class="node">
<title>WindService</title>
<ellipse fill="#fdb462" stroke="#000000" cx="85" cy="-104" rx="61.3954" ry="18"/>
<text text-anchor="middle" x="85" y="-99.8" font-family="Times,serif" font-size="14.00" fill="#000000">WindService</text>
</g>
<!-- WindService&#45;&gt;WeewxModule -->
<g id="edge11" class="edge">
<title>WindService&#45;&gt;WeewxModule</title>
<path fill="none" stroke="#000000" d="M85,-122.0265C85,-147.5093 85,-191 85,-191 85,-191 752.7381,-191 752.7381,-191"/>
<polygon fill="#000000" stroke="#000000" points="752.7382,-194.5001 762.7381,-191 752.7381,-187.5001 752.7382,-194.5001"/>
</g>
</g>
</svg>
